<svg width="96" height="63" viewBox="0 0 96 63" fill="none" xmlns="http://www.w3.org/2000/svg">
<path d="M9.81688 33.75C9.81688 33.75 9.70273 33.75 9.58858 33.75C9.47443 33.75 9.24614 33.75 9.24614 33.75C9.24614 33.4125 9.13199 33.075 9.01784 32.625C8.21879 32.625 6.39239 32.85 3.53864 33.1875C3.53864 34.0875 3.53864 35.2125 3.53864 36.675C3.53864 38.3625 3.53864 39.6 3.53864 40.3875C3.99524 40.6125 4.33769 40.6125 4.68014 40.3875C5.02259 40.1625 5.25089 39.7125 5.25089 38.925C5.36504 39.0375 5.47919 39.0375 5.59334 38.925C5.70749 38.925 5.82164 38.925 5.82164 39.0375C5.82164 39.6 5.70749 40.5 5.70749 41.7375C5.70749 43.0875 5.70749 43.875 5.70749 44.4375C5.47919 44.775 5.25089 44.8875 5.13674 44.55C5.02259 44.4375 5.02259 44.325 4.90844 44.1C4.79429 43.875 4.68014 43.65 4.68014 43.65C4.56599 43.65 4.33769 43.65 3.99524 43.65C3.76694 43.65 3.53864 43.65 3.42449 43.65C3.42449 44.4375 3.31034 46.8 3.31034 50.4C3.99524 50.625 5.36504 50.625 7.53389 50.2875C7.99049 50.2875 8.33294 50.175 8.78954 50.175C9.13199 50.0625 9.36029 49.6125 9.47444 48.9375C9.93104 49.05 10.1593 49.05 10.1593 49.05C10.1593 49.3875 9.93103 50.175 9.70273 51.6375C9.47443 52.65 9.36029 53.55 9.24614 54.225C8.10464 54.5625 6.62069 54.675 4.90844 54.675C4.33769 54.675 3.53864 54.675 2.39715 54.7875C1.1415 54.7875 0.342449 54.7875 0.11415 54.7875C0.11415 54.5625 0.2283 54.225 0.342449 53.775C0.684899 52.65 0.913199 51.525 0.913199 50.4C1.1415 44.2125 1.1415 38.5875 1.02735 33.6375C1.02735 32.7375 0.913199 32.0625 0.913199 31.5C0.913199 31.1625 0.684899 30.7125 0.456599 30.2625C0.2283 29.8125 0.11415 29.3625 0.11415 29.1375C3.99524 29.25 6.96314 28.9125 8.67539 28.6875C9.01784 28.6875 9.13199 28.6875 9.24614 28.8C9.36029 28.9125 9.47443 29.7 9.70273 31.1625C9.93103 32.625 10.0452 33.525 10.0452 33.8625C9.93104 33.75 9.81688 33.75 9.81688 33.75ZM10.5018 49.5C10.6159 49.6125 10.6159 49.8375 10.5018 50.175C10.5018 50.2875 10.5018 50.4 10.3876 50.5125C10.3876 50.7375 10.2735 50.85 10.2735 50.85C9.81688 53.1 9.58858 54.5625 9.36028 55.2375C9.36028 55.2375 6.73484 55.575 1.48395 55.6875H1.3698C1.25565 55.6875 1.25565 55.6875 1.1415 55.6875C1.02735 55.6875 0.913199 55.575 0.799049 55.35C1.02735 55.125 1.5981 55.125 2.39715 55.125C2.9679 55.2375 3.53864 55.2375 4.22354 55.2375C4.79429 55.2375 5.59334 55.125 6.73484 55.0125C7.87634 54.9 8.78954 54.7875 9.36028 54.675C9.58858 54 9.70273 53.1 9.93103 51.975C10.1593 50.7375 10.2735 49.8375 10.5018 49.5C10.3876 49.5 10.3876 49.5 10.5018 49.5ZM4.33769 44.6625C4.33769 44.6625 4.22354 44.6625 4.10939 44.6625C3.99524 44.6625 3.99524 44.6625 3.88109 44.6625C3.88109 44.8875 3.88109 45.1125 3.88109 45.5625C3.88109 46.125 3.88109 46.35 3.88109 46.4625C3.88109 46.4625 3.88109 47.25 3.88109 48.6C3.88109 49.3875 3.88109 49.95 3.65279 50.175C3.53864 49.6125 3.53864 48.7125 3.65279 47.3625C3.65279 45.7875 3.65279 44.775 3.65279 44.325C3.76694 44.325 3.88109 44.325 4.22354 44.2125C4.45184 44.1 4.56599 44.2125 4.56599 44.4375C4.56599 44.55 4.45184 44.55 4.33769 44.6625ZM8.78954 33.3C8.78954 33.8625 9.01784 34.2 9.36028 34.2C9.93103 34.3125 10.1593 34.3125 10.1593 34.3125C10.0452 34.5375 9.93103 34.65 9.58858 34.65C9.13199 34.65 8.90369 34.65 8.90369 34.65C8.90369 34.5375 8.90369 34.425 8.78954 34.2C8.67539 33.975 8.67539 33.8625 8.67539 33.6375C6.62069 33.75 5.02259 33.8625 4.10939 33.8625C4.10939 34.7625 3.99524 36.1125 3.99524 37.9125C3.99524 38.025 3.99524 38.1375 3.99524 38.3625C3.99524 38.5875 3.99524 38.8125 3.99524 38.8125C3.99524 39.15 3.99524 39.4875 3.88109 39.6C3.76694 38.925 3.76694 37.8 3.76694 36.45C3.76694 34.5375 3.76694 33.525 3.76694 33.4125C5.13674 33.525 6.73484 33.525 8.78954 33.3ZM6.27824 39.2625C6.39239 40.8375 6.27824 42.8625 6.16409 45.45C6.04994 45.45 5.93579 45.45 5.59334 45.5625C5.36504 45.675 5.25089 45.5625 5.25089 45.45C5.25089 45.225 5.36504 45.1125 5.47919 45.1125C5.70749 45.1125 5.82164 45.1125 5.82164 45C5.82164 44.4375 5.93579 43.5375 5.93579 42.1875C5.93579 40.725 5.93579 39.825 6.04994 39.15C6.16409 39.2625 6.16409 39.2625 6.27824 39.2625Z" fill="black"/>
<path d="M21.346 27.225C21.2319 27.45 21.1177 27.5625 21.1177 27.5625C21.0036 27.9 20.7753 28.35 20.547 29.1375C20.4328 29.7 20.2045 30.4875 19.8621 31.6125C19.5196 32.85 19.2913 33.6375 19.1772 34.0875C18.3781 36.7875 17.8074 38.925 17.4649 40.3875C17.9215 42.075 18.9489 45.1125 20.4328 49.5C20.6611 50.2875 20.8894 50.7375 20.8894 50.9625C21.0036 51.075 21.0036 51.3 21.2319 51.525C21.346 51.75 21.4602 51.975 21.5743 52.0875C21.5743 52.3125 21.4602 52.425 21.346 52.425C21.346 52.425 21.2319 52.425 21.1177 52.425C21.0036 52.425 21.0036 52.425 21.0036 52.425C19.5196 52.7625 18.3781 52.875 17.8074 52.875C17.8074 52.7625 17.8074 52.5375 17.8074 52.425C17.9215 52.2 17.9215 52.0875 17.9215 51.975C17.9215 51.75 17.9215 51.4125 17.8074 50.9625C17.6932 50.4 17.4649 49.5 17.0083 48.4875C16.5517 47.25 16.3234 46.4625 16.2093 46.125C15.8668 47.3625 15.5244 48.9375 15.0678 50.7375C14.8395 51.525 14.7253 51.975 14.7253 52.2C14.7253 52.3125 14.7253 52.5375 14.8395 52.7625C14.9536 52.9875 14.9536 53.2125 14.9536 53.325C14.8395 53.4375 14.8395 53.55 14.6112 53.55C14.6112 53.55 14.497 53.55 14.3829 53.55C14.2687 53.55 14.2687 53.55 14.1546 53.55C13.9263 53.55 13.3555 53.6625 12.6706 53.8875C11.9857 54 11.415 54.1125 11.0725 54.1125C11.0725 53.8875 11.0725 53.6625 11.1867 53.55L11.3008 53.4375C11.415 53.325 11.415 53.325 11.415 53.325C11.7574 52.7625 12.0999 51.6375 12.5565 49.8375C12.7848 48.9375 13.1272 47.475 13.698 45.675C14.2687 43.7625 14.6112 42.4125 14.8395 41.625C14.8395 41.2875 14.8395 40.95 14.7253 40.5C14.6112 39.9375 14.497 39.6 14.497 39.4875C14.3829 39.15 14.2687 38.5875 14.0404 37.8C13.8121 37.125 13.698 36.5625 13.5838 36.1125C12.3282 31.8375 11.6433 29.7 11.5291 29.475C11.5291 29.475 11.415 29.3625 11.1867 29.025C11.0725 28.9125 10.9584 28.6875 10.9584 28.4625C12.214 28.2375 13.4697 28.0125 14.8395 28.0125C14.7253 28.6875 14.8395 29.3625 14.9536 30.15C14.9536 30.375 15.0678 30.7125 15.1819 31.1625C15.2961 31.6125 15.4102 31.95 15.4102 32.175C15.6385 33.075 15.8668 34.2 16.2093 35.325C16.2093 35.2125 16.5517 34.2 17.0083 32.175C17.2366 31.275 17.3508 30.7125 17.4649 30.4875C17.6932 29.7 17.8074 29.1375 17.8074 28.9125C17.8074 28.35 17.8074 27.9 17.5791 27.45C17.5791 27.3375 17.6932 27.225 17.6932 27.225C17.8074 27.225 17.8074 27.1125 17.9215 27C18.1498 27 18.4923 27 18.9489 26.8875C19.5196 26.775 19.8621 26.775 20.0904 26.775C21.0036 26.775 21.4602 26.6625 21.346 26.6625C21.4602 26.8875 21.4602 27.1125 21.346 27.225ZM16.4376 47.1375C16.5517 47.475 16.4376 47.8125 16.3234 48.375C16.3234 48.4875 16.2093 48.7125 16.0951 48.9375C15.981 49.1625 15.981 49.3875 15.981 49.5C15.7527 50.5125 15.5244 51.075 15.5244 51.075C15.4102 51.75 15.4102 52.3125 15.4102 52.875C15.4102 52.9875 15.5244 53.2125 15.5244 53.4375C15.6385 53.6625 15.6385 53.8875 15.6385 54C15.5244 54.1125 15.1819 54.3375 14.7253 54.3375C14.497 54.3375 14.1546 54.45 13.8121 54.45C13.3555 54.45 13.0131 54.5625 12.7848 54.5625C12.214 54.675 11.8716 54.675 11.7574 54.5625C11.8716 54.3375 11.9857 54.1125 12.0999 54.1125C12.0999 54.1125 12.3282 54.1125 12.5565 54.1125C13.1272 54.1125 14.0404 54 15.2961 53.775C14.9536 52.875 15.0678 51.75 15.2961 50.4C15.4102 50.0625 15.5244 49.5 15.7527 48.7125C16.0951 48.0375 16.2093 47.5875 16.4376 47.1375C16.3234 47.1375 16.3234 47.1375 16.4376 47.1375ZM15.2961 28.0125C15.2961 28.6875 15.4102 29.7 15.6385 31.1625C15.8668 32.175 15.981 32.9625 16.2093 33.6375C16.3234 33.8625 16.3234 33.975 16.3234 33.975C16.3234 34.0875 16.3234 34.3125 16.3234 34.425C16.2093 34.2 15.981 33.525 15.7527 32.4C15.6385 32.175 15.6385 31.725 15.5244 31.275C15.4102 30.7125 15.2961 30.375 15.2961 30.15C15.0678 29.25 15.0678 28.4625 15.2961 28.0125ZM22.1451 26.8875C22.1451 27.1125 22.0309 27.225 22.0309 27.3375C21.9168 27.5625 21.8026 27.675 21.8026 27.675C21.6885 27.9 21.5743 28.35 21.2319 29.1375C20.8894 30.0375 20.547 31.3875 20.0904 33.075C19.5196 35.1 19.1772 36.5625 18.9489 37.2375C18.7206 38.1375 18.4923 38.5875 18.4923 38.8125C18.264 39.825 18.0357 40.3875 18.0357 40.5C18.0357 40.3875 18.1498 40.95 18.4923 41.9625C18.7206 42.525 18.9489 43.3125 19.1772 44.2125C19.5196 45.3375 19.7479 46.0125 19.8621 46.35C20.4328 48.2625 21.0036 49.725 21.4602 50.5125C21.9168 51.3 22.0309 51.6375 22.0309 51.6375C22.0309 51.6375 22.1451 51.75 22.3734 51.975C22.4875 52.0875 22.6017 52.2 22.6017 52.3125C22.6017 52.65 22.4875 52.7625 22.1451 52.875C22.0309 52.875 21.9168 52.9875 21.6885 52.9875C21.4602 52.9875 21.346 52.9875 21.2319 53.1C20.6611 53.2125 19.9762 53.325 19.063 53.55C18.6064 53.6625 18.3781 53.6625 18.3781 53.55C18.4923 53.325 18.6064 53.2125 18.8347 53.1C18.9489 53.1 18.9489 53.1 19.063 53.1C19.1772 53.1 19.2913 53.1 19.2913 53.1C19.6338 52.9875 20.0904 52.875 20.6611 52.7625C21.346 52.5375 21.8026 52.425 22.0309 52.425C21.2319 51.3 20.4328 49.3875 19.6338 46.9125C19.4055 46.2375 19.063 45.1125 18.6064 43.65C18.1498 42.1875 17.8074 41.175 17.5791 40.3875C18.7206 36.225 19.6338 32.85 20.3187 30.2625C20.7753 28.8 21.1177 27.7875 21.2319 27.45C21.2319 27.3375 21.346 27.225 21.4602 27.1125C21.5743 27 21.6885 26.8875 21.6885 26.775C22.0309 26.6625 22.1451 26.775 22.1451 26.8875Z" fill="black"/>
<path d="M26.9394 44.775C26.9394 47.3625 27.0535 48.825 27.0535 49.1625C27.0535 49.6125 27.1677 49.8375 27.2818 50.0625C27.2818 50.0625 27.396 50.175 27.5101 50.4C27.6243 50.5125 27.6243 50.625 27.6243 50.85C27.5101 50.9625 27.5101 51.075 27.396 51.075H27.1677C26.8252 51.075 26.3686 51.3 25.4554 51.525C24.5422 51.6375 23.9715 51.75 23.5149 51.75C23.5149 51.4125 23.5149 51.1875 23.7432 50.9625C24.0856 49.95 24.1998 48.6 24.3139 46.9125C24.3139 46.125 24.3139 44.6625 24.3139 42.4125C24.3139 41.9625 24.3139 41.175 24.3139 40.1625C24.3139 39.15 24.3139 38.475 24.3139 38.025C24.3139 37.575 24.3139 36.225 24.3139 33.975C24.3139 32.175 24.3139 30.9375 24.3139 29.925C24.3139 29.1375 24.3139 28.575 24.1998 28.2375C24.0856 27.45 23.8573 26.775 23.4007 26.325C23.4007 26.2125 23.5149 26.1 23.5149 26.1C23.629 25.9875 23.629 25.875 23.629 25.875C24.3139 25.7625 25.4554 25.5375 26.8252 25.0875C28.3092 24.6375 29.2224 24.3 29.679 24.3C31.0488 24.075 32.0761 24.1875 32.8751 24.6375C32.9893 24.6375 33.2176 25.0875 33.56 25.7625C33.7883 26.325 34.0166 26.6625 34.1308 27C34.5874 28.35 34.7015 29.925 34.5874 31.95C34.4732 32.85 34.2449 33.6375 33.9025 34.3125C33.6742 34.9875 33.3317 35.6625 32.9893 36.225C32.6468 36.7875 32.1903 37.35 31.6195 37.8C31.5054 37.9125 31.3912 38.025 31.2771 38.1375C31.1629 38.25 31.0488 38.3625 30.9346 38.475C30.8205 38.5875 30.5922 38.7 30.2497 38.8125C29.9073 38.925 29.679 39.0375 29.5648 39.15C28.7658 39.6 27.8526 39.9375 26.7111 40.1625C26.9394 42.3 26.9394 43.875 26.9394 44.775ZM34.2449 35.4375C34.2449 35.55 34.1308 35.6625 34.1308 35.8875C34.0166 36.1125 34.0166 36.225 34.0166 36.225C33.56 37.2375 32.761 38.1375 31.7337 38.925C31.3912 39.15 31.2771 39.2625 31.2771 39.2625C30.0214 40.05 28.7658 40.5 27.6243 40.725C27.5101 43.7625 27.6243 46.125 27.7384 48.0375C27.7384 48.7125 27.9667 49.5 28.3092 50.2875C28.5375 50.9625 28.6516 51.3 28.6516 51.4125C28.195 51.75 27.396 51.975 26.4828 52.2C25.4554 52.425 24.7705 52.5375 24.4281 52.7625C24.4281 52.7625 24.3139 52.7625 24.3139 52.875L24.1998 52.9875C24.0856 52.9875 24.0856 52.9875 23.9715 52.7625C23.9715 52.5375 24.0856 52.425 24.1998 52.3125H24.3139C24.4281 52.3125 24.4281 52.3125 24.4281 52.3125C24.7705 52.2 25.2271 52.0875 25.7979 51.8625C26.4828 51.6375 26.9394 51.4125 27.1677 51.4125C27.2818 51.4125 27.396 51.3 27.5101 51.1875C27.6243 51.3 27.7384 51.3 28.0809 51.1875C27.7384 50.625 27.5101 49.5 27.2818 47.925C27.2818 48.0375 27.2818 45.675 27.2818 40.725C27.396 40.725 27.396 40.725 27.396 40.6125C27.396 40.5 27.396 40.3875 27.396 40.3875C27.8526 40.3875 28.6516 40.1625 29.679 39.7125C29.7931 39.7125 29.9073 39.6 30.0214 39.6C30.1356 39.6 30.2497 39.4875 30.3639 39.4875C30.3639 39.4875 30.478 39.375 30.5922 39.375C30.7063 39.2625 30.7063 39.2625 30.8205 39.2625C31.7337 38.7 32.1903 38.3625 32.3044 38.25C33.2176 37.2375 33.9025 36.1125 34.4732 34.65C34.7015 34.0875 34.8157 33.525 34.9298 32.85C34.9298 32.85 34.9298 32.85 34.9298 32.7375C34.9298 32.7375 34.9298 32.7375 34.9298 32.625C35.044 32.7375 35.044 32.7375 35.1581 32.7375C34.9298 33.4125 34.7015 34.3125 34.2449 35.4375ZM30.3639 34.3125L30.478 34.2C30.478 34.0875 30.5922 34.0875 30.5922 33.975C30.5922 33.975 30.7063 33.8625 30.9346 33.75C31.0488 33.6375 31.1629 33.525 31.1629 33.525C31.8478 32.5125 32.1903 31.275 32.0761 30.0375C31.7337 29.025 31.0488 28.575 29.9073 28.6875C29.2224 28.8 28.3092 29.1375 27.1677 29.7C27.1677 30.825 27.1677 32.9625 27.1677 35.8875C27.9667 35.6625 28.7658 35.4375 29.5648 34.9875C29.9073 34.65 30.2497 34.425 30.3639 34.3125ZM31.5054 30.4875C31.1629 29.8125 30.5922 29.5875 29.679 29.8125C29.4507 29.8125 28.9941 29.925 28.5375 30.15C28.0809 30.2625 27.7384 30.375 27.5101 30.4875C27.5101 30.9375 27.5101 31.725 27.5101 32.85C27.5101 34.0875 27.5101 34.875 27.5101 35.4375L27.396 35.325C27.396 35.325 27.2818 35.325 27.2818 35.2125C27.2818 34.875 27.2818 34.425 27.396 33.525C27.396 32.5125 27.396 31.95 27.396 31.8375C27.396 31.05 27.396 30.4875 27.2818 30.2625C27.2818 30.0375 27.396 29.925 27.396 29.925H27.6243C28.6516 29.475 29.4507 29.25 29.7931 29.25C30.478 29.25 31.0487 29.25 31.2771 29.475C31.6195 29.7 31.7337 29.925 31.6195 30.375C31.6195 30.2625 31.6195 30.375 31.5054 30.4875Z" fill="black"/>
<path d="M38.0119 21.825C38.9251 21.4875 39.4958 21.2625 39.8383 21.2625C39.8383 21.375 39.8383 21.6 39.7241 21.825C39.61 22.05 39.61 22.275 39.61 22.275C39.2675 23.5125 39.1534 25.425 39.1534 28.0125C39.1534 28.4625 39.1534 29.475 39.1534 31.1625C39.1534 32.4 39.1534 33.3 39.1534 33.975C39.1534 34.2 39.1534 34.425 39.1534 34.875C39.1534 35.2125 39.1534 35.55 39.1534 35.775C39.1534 36.45 39.1534 37.6875 39.1534 39.4875C39.1534 41.0625 39.1534 42.1875 39.1534 43.0875C39.2675 43.0875 43.1486 42.075 44.5184 41.7375C45.5458 41.5125 46.459 41.175 47.0297 40.95C47.0297 40.95 47.1439 40.95 47.258 40.725C47.3722 40.6125 47.3722 40.725 47.4863 40.725C47.7146 39.9375 47.9429 39.375 47.9429 39.15C48.1712 39.0375 48.3995 39.0375 48.5137 39.2625C48.3995 39.9375 48.2854 40.8375 47.9429 41.9625C47.6005 43.2 47.3722 44.2125 47.3722 44.775C44.0618 46.125 38.126 47.8125 35.7289 48.2625C35.7289 48.0375 35.843 47.7 35.9572 47.3625C36.0713 46.9125 36.1855 46.575 36.2996 46.35C36.4138 45.675 36.5279 44.775 36.5279 43.65C36.5279 43.425 36.5279 42.8625 36.5279 42.1875C36.5279 41.5125 36.5279 41.0625 36.5279 40.725C36.5279 37.575 36.6421 35.1 36.6421 33.1875C36.6421 30.6 36.6421 28.0125 36.6421 25.3125C36.6421 24.8625 36.6421 24.525 36.6421 24.4125C36.6421 24.075 36.5279 23.85 36.4138 23.5125C36.2996 23.0625 36.1855 22.725 36.1855 22.6125C36.1855 22.6125 36.1855 22.6125 36.1855 22.5V22.3875C36.6421 22.275 37.2128 22.1625 38.0119 21.825ZM48.9703 40.5C48.9703 40.6125 48.9703 40.6125 48.8561 40.8375C48.8561 40.95 48.742 41.0625 48.742 41.0625C48.2854 43.0875 47.9429 44.325 47.8288 44.6625C47.8288 44.775 47.8288 45 47.7146 45.5625C46.3448 46.125 40.6373 47.8125 36.6421 48.825C36.6421 48.6 36.7562 48.375 36.8704 48.375C36.9845 48.375 36.9845 48.2625 37.2128 48.2625C37.327 48.2625 37.4411 48.2625 37.4411 48.2625C40.6373 47.475 46.0024 45.9 47.3722 45.3375C47.6005 44.775 47.8288 43.875 48.0571 42.6375C48.3995 41.4 48.5137 40.5 48.742 40.05C49.0844 40.1625 49.0844 40.275 48.9703 40.5ZM40.409 21.7125C40.409 21.6 40.2949 22.05 40.1807 22.95C39.9524 23.85 39.9524 25.3125 39.9524 27.225C39.9524 28.35 39.9524 30.2625 39.9524 32.9625C39.9524 35.55 39.9524 37.4625 39.9524 38.925C39.9524 39.0375 39.9524 39.4875 39.9524 40.05C39.9524 40.5 39.9524 41.0625 39.9524 41.5125C39.9524 41.5125 39.9524 41.625 39.9524 41.7375C39.9524 41.85 39.9524 41.85 39.9524 41.9625C39.9524 42.075 39.9524 42.1875 39.8383 42.3C39.7241 42.3 39.7241 42.1875 39.61 41.85C39.61 41.7375 39.61 41.625 39.61 41.5125C39.61 41.4 39.61 41.2875 39.61 41.175C39.61 38.8125 39.61 37.4625 39.61 37.125C39.61 36.9 39.61 35.325 39.61 32.4C39.61 30.4875 39.61 28.9125 39.61 27.5625C39.61 25.2 39.7241 23.7375 39.9524 22.95C40.0666 22.3875 40.1807 22.05 40.2949 21.825C40.2949 21.825 40.2949 21.7125 40.409 21.7125Z" fill="black"/>
<path d="M68.1474 29.7C68.4899 31.95 68.8323 33.4125 69.1748 34.0875C69.6314 34.9875 70.2021 35.4375 70.887 35.4375C70.887 36.3375 70.887 37.0125 70.887 37.575C70.088 38.025 69.4031 38.1375 68.8323 37.9125C67.9191 37.575 67.1201 36.3375 66.4352 34.2C66.321 33.75 65.9786 32.85 65.6361 31.5C65.2937 30.375 65.0654 29.475 64.8371 28.9125C64.1522 28.4625 63.5815 28.35 63.0107 28.6875C63.0107 34.65 63.1249 37.6875 63.1249 37.8C63.1249 38.025 63.239 38.3625 63.3531 38.5875C63.4673 38.925 63.5815 39.15 63.5815 39.375C63.0107 39.6 61.5268 40.05 59.4721 40.725C59.4721 40.5 59.4721 40.275 59.5862 40.1625C59.7004 39.825 59.8145 39.6 59.8145 39.7125C59.8145 39.7125 59.9287 39.4875 59.9287 39.15C59.9287 38.925 60.0428 38.7 60.157 38.5875C60.3853 37.4625 60.3853 34.5375 60.3853 29.925C60.3853 27.3375 60.3853 24.975 60.3853 22.95C60.3853 22.8375 60.3853 22.275 60.3853 21.15C60.3853 20.3625 60.3853 19.8 60.3853 19.2375C60.3853 17.8875 60.2711 16.875 60.0428 16.2C60.0428 16.3125 59.8145 15.975 59.4721 15.1875C59.5862 14.9625 59.7004 14.7375 59.9287 14.625C59.9287 14.625 60.157 14.625 60.4994 14.5125C60.956 14.4 61.9834 14.0625 63.6956 13.5C65.0654 13.05 66.0927 12.825 66.8918 12.7125C67.805 12.6 68.604 12.825 69.2889 13.5C69.8597 14.0625 70.3163 14.625 70.4304 15.3C70.6587 15.975 70.6587 16.9875 70.6587 18.3375C70.6587 19.6875 70.5446 20.7 70.3163 21.4875C70.088 22.5 69.6314 23.4 68.8323 24.1875C68.2616 24.975 67.5767 25.5375 66.7776 25.9875C67.3484 26.4375 67.805 27.675 68.1474 29.7ZM63.3531 28.9125C63.239 33.8625 63.3531 37.125 63.9239 38.8125C64.1522 39.4875 64.2663 39.7125 64.2663 39.7125C64.2663 40.05 63.8097 40.3875 63.1249 40.6125C62.8965 40.725 62.6683 40.725 62.3258 40.8375C61.9834 40.95 61.7551 40.95 61.7551 40.95C60.6136 41.2875 60.0428 41.4 59.9287 41.2875C59.9287 41.0625 60.0428 40.95 60.2711 40.95C60.2711 40.95 60.3853 40.95 60.4994 40.95C60.6136 40.95 60.6136 40.95 60.7277 40.95C61.1843 40.8375 61.6409 40.725 62.3258 40.5C63.1248 40.275 63.5815 40.05 63.9239 39.9375C63.8097 39.15 63.5814 38.7 63.4673 38.475C63.239 37.4625 63.1249 36 63.1249 33.975C63.1249 33.4125 63.1249 32.625 63.1249 31.5C63.1249 30.4875 63.1249 29.7 63.1249 29.25V29.1375C63.239 28.9125 63.239 28.9125 63.3531 28.9125C63.3531 28.8 63.3531 28.8 63.3531 28.9125ZM67.9191 17.775C67.6908 17.4375 67.3484 17.2125 67.0059 17.1C66.5493 16.9875 65.8644 17.1 64.9512 17.4375C63.9239 17.775 63.239 18 63.0107 18C62.8966 18.5625 62.8966 20.475 63.0107 23.7375C63.239 23.625 63.8097 23.4 64.6088 23.175C65.2937 22.95 65.8644 22.725 66.2069 22.5C67.4625 21.825 68.1474 20.7 68.2616 19.2375C68.2616 18.675 68.1474 18.225 67.9191 17.775ZM67.3484 18.225C67.1201 18 67.0059 18 67.0059 18C66.5493 17.8875 65.9786 17.8875 65.1795 18.1125C64.9512 18.225 64.7229 18.3375 64.2663 18.45C63.9239 18.5625 63.5815 18.675 63.3531 18.7875C63.239 21.7125 63.1249 23.175 63.239 23.0625C63.1249 23.0625 63.1249 22.95 63.1249 22.725C63.1249 22.725 63.1249 22.6125 63.1249 22.3875C63.1249 22.275 63.1249 22.1625 63.1249 22.05C63.1249 20.925 63.1249 19.6875 63.1249 18.3375C64.2663 17.8875 65.0654 17.55 65.522 17.4375C66.5493 17.2125 67.2342 17.4375 67.5767 18.1125C67.6908 18.3375 67.5767 18.3375 67.3484 18.225ZM71.1153 34.65C70.2021 34.7625 69.5172 33.975 68.9465 32.2875C68.9465 32.2875 68.604 30.7125 67.9191 27.3375C67.9191 27.225 67.805 27 67.6908 26.6625C67.5767 26.4375 67.5767 26.2125 67.5767 25.9875C68.4899 25.425 69.2889 24.525 69.9738 23.2875C70.6587 21.9375 71.0012 20.3625 71.0012 18.675C71.0012 17.325 71.0012 16.7625 71.0012 16.7625C71.1153 16.9875 71.2295 17.6625 71.2295 18.7875C71.1153 20.475 70.7729 22.05 70.088 23.5125C69.4031 24.975 68.7182 25.875 67.805 26.2125C67.805 26.4375 68.0333 27.3375 68.2616 28.9125C68.4899 30.0375 68.604 30.825 68.8323 31.5C69.2889 33.3 70.088 34.2 71.0012 34.3125V34.425C71.2295 34.425 71.2295 34.5375 71.1153 34.65C71.2295 34.5375 71.2295 34.5375 71.1153 34.65ZM71.3436 35.775C71.3436 36.7875 71.3436 37.35 71.3436 37.575C71.2295 37.6875 71.2295 37.8 71.2295 37.9125C71.2295 37.9125 71.2295 38.025 71.2295 38.1375C71.2295 38.25 71.2295 38.25 71.2295 38.3625C70.088 38.5875 69.4031 38.5875 69.1748 38.475C69.4031 38.25 69.7455 38.25 70.088 38.1375C70.5446 38.1375 70.887 38.025 71.1153 37.9125C71.1153 37.8 71.2295 37.2375 71.2295 36.45C71.2295 35.55 71.2295 34.875 71.3436 34.425C71.3436 34.5375 71.4578 34.9875 71.3436 35.775Z" fill="black"/>
<path d="M82.4162 14.4C82.4162 14.4 82.302 14.4 82.1879 14.4C82.0737 14.4 81.8454 14.4 81.8454 14.4C81.8454 14.175 81.7313 13.725 81.6171 13.275C80.8181 13.3875 78.9917 13.6125 76.1379 14.4C76.1379 15.3 76.1379 16.425 76.1379 17.8875C76.1379 19.575 76.1379 20.8125 76.1379 21.6C76.5945 21.7125 76.937 21.7125 77.2794 21.4875C77.6219 21.2625 77.8502 20.7 77.8502 19.9125C77.9643 19.9125 78.0785 19.9125 78.1926 19.9125C78.3068 19.9125 78.4209 19.9125 78.4209 20.025C78.4209 20.5875 78.3068 21.4875 78.3068 22.6125C78.3068 23.9625 78.3068 24.75 78.3068 25.3125C78.0785 25.65 77.8502 25.7625 77.736 25.5375C77.6219 25.425 77.6219 25.3125 77.5077 25.0875C77.3936 24.8625 77.2794 24.6375 77.2794 24.6375C77.1653 24.6375 76.937 24.75 76.5945 24.75C76.3662 24.8625 76.1379 24.8625 76.0238 24.8625C76.0238 25.7625 75.9096 28.0125 75.9096 31.725C76.4804 31.725 77.8502 31.5 80.019 31.05C80.4756 30.9375 80.8181 30.9375 81.2747 30.825C81.6171 30.6 81.8454 30.2625 81.9596 29.5875C82.4162 29.5875 82.6445 29.7 82.6445 29.7C82.6445 30.0375 82.4162 30.825 82.1879 32.2875C81.9596 33.3 81.8454 34.2 81.7313 34.875C80.5898 35.2125 79.1058 35.55 77.3936 35.775C76.8228 35.8875 76.0238 36 74.8823 36.225C73.6266 36.5625 72.8276 36.675 72.5993 36.7875C72.5993 36.5625 72.7134 36.225 72.8276 35.6625C73.17 34.5375 73.3983 33.3 73.3983 32.0625C73.5125 25.875 73.6266 20.25 73.5125 15.3C73.5125 14.4 73.3983 13.725 73.3983 13.1625C73.3983 12.825 73.17 12.4875 72.9417 11.925C72.7134 11.475 72.5993 11.1375 72.5993 10.8C76.5945 9.9 79.4483 9.45 81.1605 9C81.503 8.8875 81.6171 9 81.7313 9.1125C81.8454 9.225 81.9596 10.0125 82.1879 11.475C82.4162 12.9375 82.5303 13.8375 82.5303 14.175C82.4162 14.4 82.4162 14.4 82.4162 14.4ZM82.9869 30.15C83.1011 30.2625 83.1011 30.4875 82.9869 30.825C82.9869 30.9375 82.9869 31.05 82.8728 31.1625C82.8728 31.3875 82.7586 31.5 82.7586 31.5C82.302 33.75 82.0737 35.2125 81.8454 36C81.8454 36 79.22 36.3375 73.9691 37.4625C73.9691 37.4625 73.8549 37.4625 73.8549 37.575C73.7408 37.575 73.7408 37.575 73.6266 37.6875C73.5125 37.6875 73.3983 37.6875 73.2842 37.4625C73.6266 37.125 74.0832 37.0125 74.8823 36.9C75.453 36.9 76.0238 36.7875 76.7087 36.7875C77.2794 36.675 78.0785 36.45 79.22 36.225C80.3615 36 81.2747 35.775 81.8454 35.6625C82.0737 34.9875 82.1879 34.0875 82.4162 32.9625C82.6445 31.3875 82.8728 30.4875 82.9869 30.15ZM76.937 25.7625C76.937 25.7625 76.8228 25.7625 76.7087 25.7625C76.5945 25.7625 76.5945 25.7625 76.4804 25.875C76.4804 26.1 76.4804 26.325 76.4804 26.775C76.4804 27.3375 76.4804 27.5625 76.4804 27.675C76.4804 27.675 76.4804 28.35 76.4804 29.8125C76.4804 30.6 76.4804 31.1625 76.2521 31.3875C76.1379 30.825 76.1379 29.925 76.2521 28.575C76.2521 27 76.2521 25.9875 76.2521 25.5375C76.3662 25.5375 76.4804 25.5375 76.8228 25.3125C77.0511 25.2 77.1653 25.3125 77.1653 25.5375C77.1653 25.65 77.0511 25.7625 76.937 25.7625ZM81.2747 13.95C81.2747 14.5125 81.503 14.85 81.8454 14.85C82.4162 14.9625 82.6445 14.9625 82.6445 14.9625C82.5303 15.1875 82.4162 15.3 82.0737 15.3C81.6171 15.3 81.3888 15.3 81.3888 15.3C81.3888 15.1875 81.3888 15.075 81.2747 14.85C81.1605 14.625 81.1605 14.5125 81.1605 14.4C79.1058 14.625 77.5077 14.9625 76.5945 15.1875C76.5945 16.0875 76.4804 17.4375 76.4804 19.2375C76.4804 19.35 76.4804 19.4625 76.4804 19.6875C76.4804 19.9125 76.4804 20.025 76.4804 20.1375C76.4804 20.475 76.4804 20.8125 76.3662 20.925C76.2521 20.25 76.2521 19.125 76.2521 17.775C76.2521 15.8625 76.2521 14.7375 76.2521 14.7375C77.6219 14.5125 79.3341 14.2875 81.2747 13.95ZM78.7634 20.1375C78.8775 21.6 78.7634 23.7375 78.6492 26.325C78.5351 26.325 78.4209 26.325 78.0785 26.4375C77.8502 26.55 77.736 26.55 77.736 26.325C77.736 26.1 77.8502 25.9875 77.9643 25.9875C78.1926 25.9875 78.3068 25.875 78.3068 25.875C78.3068 25.3125 78.4209 24.4125 78.4209 23.0625C78.4209 21.6 78.4209 20.5875 78.5351 20.025C78.6492 20.1375 78.7634 20.1375 78.7634 20.1375Z" fill="black"/>
<path d="M92.8038 25.425C93.1463 27.7875 93.4887 29.3625 93.8311 30.0375C94.2878 31.05 94.8585 31.6125 95.5434 31.8375C95.5434 32.7375 95.5434 33.4125 95.5434 33.975C94.7443 34.2 94.0595 34.0875 93.4887 33.75C92.5755 33.1875 91.7765 31.8375 91.0916 29.5875C90.9774 29.1375 90.635 28.125 90.2925 26.6625C89.9501 25.425 89.7218 24.525 89.4935 23.85C88.8086 23.2875 88.2378 23.0625 87.6671 23.2875C87.6671 29.25 87.7812 32.2875 87.7812 32.4C87.7812 32.625 87.8954 32.9625 88.0095 33.3C88.1237 33.6375 88.2378 33.8625 88.2378 34.0875C87.6671 34.2 86.2973 34.425 84.1284 34.65C84.1284 34.425 84.1284 34.2 84.2426 34.0875C84.3567 33.75 84.4709 33.6375 84.4709 33.6375C84.4709 33.6375 84.585 33.4125 84.585 33.075C84.585 32.85 84.6992 32.625 84.8133 32.625C85.0416 31.5 85.0416 28.6875 85.0416 23.9625C85.0416 21.375 85.0416 19.0125 85.0416 16.9875C85.0416 16.875 85.0416 16.3125 85.0416 15.1875C85.0416 14.4 85.0416 13.8375 85.0416 13.275C85.0416 11.925 84.9275 10.8 84.6992 10.2375C84.6992 10.35 84.4709 9.9 84.1284 9.1125C84.2426 8.8875 84.3567 8.775 84.585 8.6625C84.585 8.6625 84.8133 8.6625 85.1558 8.6625C85.6124 8.6625 86.6397 8.4375 88.352 8.325C89.7218 8.2125 90.7491 8.1 91.5481 8.2125C92.4613 8.325 93.2604 8.775 93.9453 9.5625C94.5161 10.2375 94.9727 10.9125 95.0868 11.5875C95.3151 12.2625 95.3151 13.275 95.3151 14.7375C95.3151 16.0875 95.201 17.1 94.9726 17.775C94.7443 18.675 94.2878 19.4625 93.4887 20.1375C92.918 20.7 92.2331 21.15 91.434 21.4875C92.0048 22.05 92.4614 23.4 92.8038 25.425ZM88.0095 23.7375C87.8954 28.575 88.0095 31.95 88.5803 33.75C88.8086 34.425 88.9227 34.7625 88.9227 34.7625C88.9227 35.1 88.4661 35.325 87.7812 35.4375C87.5529 35.4375 87.3246 35.4375 86.9822 35.4375C86.6397 35.4375 86.4114 35.4375 86.4114 35.4375C85.2699 35.55 84.6992 35.55 84.585 35.55C84.585 35.325 84.6992 35.2125 84.9275 35.2125C84.9275 35.2125 85.0416 35.2125 85.1558 35.2125C85.2699 35.2125 85.2699 35.2125 85.3841 35.2125C85.8407 35.2125 86.2973 35.1 86.9822 34.9875C87.7812 34.875 88.2378 34.7625 88.5803 34.7625C88.4661 33.975 88.2378 33.525 88.1237 33.1875C87.8954 32.175 87.7812 30.6 87.7812 28.575C87.7812 28.0125 87.7812 27.225 87.7812 26.1C87.7812 25.0875 87.7812 24.3 87.7812 23.85V23.7375C87.8954 23.7375 87.8954 23.7375 88.0095 23.7375C87.8954 23.625 88.0095 23.625 88.0095 23.7375ZM92.4614 13.6125C92.2331 13.1625 91.8906 12.9375 91.5481 12.7125C91.0916 12.4875 90.4067 12.4875 89.4935 12.6C88.4661 12.7125 87.7812 12.825 87.5529 12.825C87.4388 13.3875 87.4388 15.3 87.5529 18.5625C87.7812 18.45 88.352 18.45 89.151 18.3375C89.8359 18.225 90.4067 18.1125 90.7491 18C92.0048 17.55 92.6897 16.65 92.8038 15.1875C92.918 14.625 92.8038 14.0625 92.4614 13.6125ZM92.0048 13.8375C91.7765 13.6125 91.6623 13.5 91.6623 13.5C91.2057 13.275 90.635 13.1625 89.8359 13.275C89.6076 13.275 89.3793 13.3875 88.9227 13.3875C88.5803 13.5 88.2378 13.5 88.0095 13.5C87.8954 16.425 87.7812 17.775 87.8954 17.775C87.7812 17.775 87.7812 17.6625 87.7812 17.325C87.7812 17.325 87.7812 17.2125 87.7812 16.9875C87.7812 16.875 87.7812 16.7625 87.7812 16.65C87.7812 15.525 87.7812 14.2875 87.7812 12.9375C88.9227 12.7125 89.7218 12.6 90.1784 12.6C91.2057 12.6 91.8906 12.9375 92.2331 13.725C92.3472 14.0625 92.2331 13.95 92.0048 13.8375ZM95.7717 31.1625C94.8585 31.05 94.1736 30.0375 93.6029 28.2375C93.6029 28.35 93.2604 26.55 92.5755 23.0625C92.5755 22.95 92.4614 22.725 92.3472 22.3875C92.2331 22.1625 92.2331 21.9375 92.2331 21.7125C93.1463 21.375 93.9453 20.7 94.6302 19.575C95.3151 18.3375 95.6576 16.9875 95.6576 15.1875C95.6576 13.8375 95.6576 13.275 95.6576 13.275C95.8859 13.5 95.8858 14.175 95.8858 15.3C95.7717 16.9875 95.4293 18.45 94.7444 19.6875C94.0595 20.925 93.3745 21.7125 92.4614 21.825C92.4614 22.05 92.6897 22.95 92.918 24.6375C93.1463 25.7625 93.2604 26.6625 93.4887 27.3375C93.9453 29.25 94.7444 30.375 95.6576 30.7125V30.825C95.8859 30.9375 95.8858 31.05 95.7717 31.1625C95.8858 31.05 95.7717 31.05 95.7717 31.1625ZM96 32.4C96 33.4125 96 33.975 96 34.2C95.8858 34.3125 95.8858 34.3125 95.8858 34.425C95.8858 34.425 95.8858 34.5375 95.8858 34.65C95.8858 34.7625 95.8858 34.7625 95.8858 34.875C94.7444 34.875 94.0594 34.65 93.8311 34.5375C94.0594 34.425 94.4019 34.425 94.7444 34.425C95.201 34.5375 95.5434 34.5375 95.7717 34.425C95.7717 34.3125 95.8858 33.75 95.8858 32.9625C95.8858 32.0625 95.8858 31.3875 96 30.9375C96 31.05 96 31.6125 96 32.4Z" fill="black"/>
<path d="M56.5042 36.9L55.9334 35.55C56.0476 33.075 56.39 26.775 56.5042 25.5375C56.5042 25.5375 56.5042 25.5375 56.5042 25.425C56.8466 23.0625 56.39 21.0375 54.9061 19.4625C53.9929 18.45 53.1938 18 52.2806 17.775C51.7099 17.6625 51.2533 17.6625 50.9108 17.6625C52.3948 18.3375 54.7919 19.9125 55.2485 23.0625C55.4768 24.525 55.591 25.875 55.591 27.1125C55.4768 29.25 55.2485 32.7375 55.1344 34.875L51.7099 36.3375L47.9429 32.85C46.2307 31.95 44.4043 30.15 44.5184 26.775C44.6326 23.4 45.6599 21.0375 46.5731 19.575C46.1165 19.9125 45.7741 20.3625 45.4316 20.7C44.975 21.375 44.5184 22.1625 44.0618 22.95C43.6052 23.85 43.3769 24.8625 43.2628 25.9875C43.1486 27.1125 43.2628 28.125 43.6052 29.025C43.8335 29.8125 44.2901 30.4875 44.8609 31.1625C44.975 31.275 44.975 31.275 45.0892 31.3875L45.4316 31.725L51.2533 37.125L52.0523 38.8125C52.3948 39.7125 53.5363 40.05 54.3353 39.7125L55.591 39.15C56.39 38.8125 56.8466 37.8 56.5042 36.9Z" fill="black"/>
<path d="M48.742 33.075C49.1986 33.075 49.6552 33.075 50.2259 32.9625C48.9703 31.95 47.3722 30.0375 46.8014 27C46.1165 23.175 47.4863 19.8 48.0571 18.5625C47.8288 18.675 47.4863 18.7875 47.258 19.0125C46.3448 20.25 44.8609 22.8375 44.7467 26.8875C44.6326 30.6 47.0297 32.2875 48.742 33.075Z" fill="black"/>
<path d="M47.1439 26.8875C47.7146 30.0375 49.4269 31.95 50.5684 32.85C50.9108 32.7375 51.3674 32.625 51.7099 32.4C51.2533 30.9375 49.1986 23.9625 48.6278 18.225C48.6278 18.225 48.5137 18.225 48.5137 18.3375C48.1712 19.0125 46.459 22.5 47.1439 26.8875Z" fill="black"/>
<path d="M53.5363 31.1625C54.107 30.6 54.5636 30.0375 55.0202 29.3625C55.2485 27.675 55.2485 25.65 54.9061 23.2875C54.3353 19.8 51.4816 18.3375 50.2259 17.8875C50.1118 17.8875 49.9976 17.8875 49.8835 18C50.6825 18.675 52.0523 20.3625 52.9655 22.8375C53.8787 25.3125 53.9929 28.575 53.5363 31.1625Z" fill="black"/>
<path d="M52.2806 32.0625C52.6231 31.8375 52.8514 31.6125 53.0797 31.3875C53.7646 28.9125 53.5363 25.425 52.6231 22.725C51.7099 20.1375 50.1118 18.45 49.4269 17.8875C49.3127 17.8875 49.1986 18 48.9703 18C49.4269 23.625 51.4816 30.4875 51.9382 32.175C52.0523 32.175 52.1665 32.175 52.2806 32.0625Z" fill="black"/>
<path d="M62.2117 48.2625C62.2117 48.0375 62.2117 47.025 62.2117 46.6875C61.5268 47.025 60.8419 47.25 59.7004 47.925C59.7004 48.9375 59.7004 51.075 59.7004 53.1C60.2711 53.1 61.0702 53.1 62.2117 53.2125C62.2117 52.875 62.2117 52.3125 62.2117 51.6375C61.9834 51.6375 61.5268 51.6375 60.956 51.6375C60.956 51.3 60.956 50.7375 60.956 50.0625C61.7551 49.95 62.7824 49.95 64.6088 49.8375C64.6088 50.175 64.6088 50.625 64.6088 51.4125C64.6088 51.975 64.6088 52.875 64.6088 54C64.6088 54.225 64.4946 54.45 64.2663 54.5625C64.038 54.675 63.6956 54.7875 63.3531 54.7875C62.0975 54.7875 60.8419 54.7875 58.4447 54.7875C58.1023 54.7875 57.7598 54.675 57.5315 54.45C57.3032 54.3375 57.1891 54 57.1891 53.8875C57.1891 53.4375 57.1891 52.425 57.1891 51.525C57.1891 51.1875 57.1891 50.7375 57.1891 50.175C57.1891 49.6125 57.1891 48.4875 57.1891 47.8125C57.1891 47.5875 57.3032 47.475 57.5315 47.25C57.7598 47.1375 58.1023 46.9125 58.4447 46.8C59.5862 46.35 61.1843 45.5625 63.3531 44.8875C63.6956 44.775 63.9239 44.8875 64.2663 45C64.4946 45.1125 64.6088 45.3375 64.6088 45.5625C64.6088 45.9 64.6088 47.3625 64.6088 48.0375C64.1522 48.0375 63.239 48.15 62.2117 48.2625Z" fill="black"/>
<path d="M73.7408 42.1875C73.7408 44.4375 73.7408 49.1625 73.7408 53.6625C73.7408 54 73.6266 54.225 73.3983 54.45C73.17 54.675 72.8276 54.7875 72.4851 54.7875C71.3436 54.7875 69.7455 54.7875 67.5767 54.7875C67.2342 54.7875 66.8918 54.675 66.6635 54.45C66.4352 54.225 66.321 54 66.321 53.775C66.321 52.875 66.321 51.6375 66.321 50.2875C66.321 48.9375 66.321 45.675 66.321 43.875C66.8918 43.7625 67.6908 43.425 68.7182 43.2C68.7182 45 68.7182 49.275 68.7182 52.7625C69.2889 52.7625 70.088 52.65 71.2295 52.65C71.2295 50.7375 71.2295 46.4625 71.2295 42.75C71.8002 42.6375 72.4851 42.4125 73.7408 42.1875Z" fill="black"/>
<path d="M75.453 41.7375C75.9096 41.625 76.3662 41.625 77.8502 41.2875C77.8502 42.8625 77.8502 46.9125 77.8502 51.525C77.8502 52.0875 77.8502 53.325 77.8502 54.7875C77.3936 54.7875 76.7087 54.7875 75.453 54.7875C75.453 53.775 75.453 52.2 75.453 50.2875C75.453 48.2625 75.453 44.6625 75.453 41.7375Z" fill="black"/>
<path d="M86.7539 51.8625C86.7539 53.325 86.7539 54.3375 86.7539 54.7875C84.2426 54.7875 82.6445 54.7875 81.8454 54.7875C80.9322 54.7875 80.3615 54.7875 80.019 54.7875C79.6766 54.7875 79.4483 54.7875 79.4483 54.7875C79.4483 51.525 79.4483 48.4875 79.4483 46.35C79.4483 44.2125 79.4483 41.85 79.4483 40.725C80.7039 40.5 81.2747 40.275 81.8454 40.275C81.8454 45.7875 81.8454 50.0625 81.8454 51.8625C84.1284 51.8625 85.7265 51.8625 86.7539 51.8625Z" fill="black"/>
<path d="M95.8858 40.1625C95.8858 43.3125 95.8858 47.1375 95.8858 53.325C95.8858 53.775 95.7717 54 95.5434 54.3375C95.3151 54.675 94.9727 54.7875 94.6302 54.7875C93.717 54.7875 92.5755 54.7875 90.9774 54.7875C90.7491 54.7875 90.2925 54.7875 89.7218 54.7875C89.4935 54.7875 89.0369 54.7875 88.4661 54.7875C88.4661 53.1 88.4661 50.625 88.4661 48.0375C88.4661 45.45 88.4661 42.75 88.4661 39.2625C88.9227 39.15 89.4935 39.0375 90.5208 38.925C90.635 38.925 90.635 38.925 90.8633 38.925C91.7765 38.8125 92.918 38.7 94.6302 38.5875C94.9727 38.5875 95.201 38.7 95.5434 38.925C95.7717 39.2625 95.8858 39.7125 95.8858 40.1625ZM90.9774 51.525C91.6623 51.525 92.2331 51.525 93.4887 51.525C93.4887 51.4125 93.4887 51.1875 93.4887 50.85C93.4887 48.7125 93.4887 45.9 93.4887 41.7375C92.918 41.85 92.1189 41.85 90.9774 42.075C90.9774 43.2 90.9774 44.4375 90.9774 46.575C90.9774 47.7 90.9774 49.3875 90.9774 51.525Z" fill="black"/>
<path d="M6.73484 13.3875C5.59334 13.3875 5.02259 13.5 4.68014 13.5C4.68014 19.0125 4.68014 22.95 4.68014 24.75C3.42449 24.75 2.9679 24.8625 2.62545 24.8625C2.62545 19.35 2.62545 15.3 2.62545 13.5C1.5981 13.5 0.913199 13.5 0.570749 13.5C0.570749 12.825 0.570749 12.4875 0.570749 11.925C0.570749 11.475 0.570749 10.9125 0.570749 10.6875C3.65279 10.6875 5.59334 10.6875 6.62069 10.6875C6.73484 11.8125 6.73484 12.7125 6.73484 13.3875Z" fill="black"/>
<path d="M14.7253 10.6875C14.7253 12.825 14.7253 14.2875 14.7253 15.3C14.7253 16.425 14.7253 17.2125 14.7253 17.775C14.7253 19.9125 14.7253 22.1625 14.7253 23.175C13.8121 23.4 13.1272 23.4 12.6706 23.5125C12.6706 21.2625 12.6706 19.2375 12.6706 18.1125C11.6433 18.225 11.0725 18.225 10.6159 18.3375C10.6159 20.5875 10.6159 22.6125 10.6159 23.85C9.70273 24.075 9.01784 24.075 8.56124 24.1875C8.56124 22.8375 8.56124 21.6 8.56124 20.7C8.56124 19.8 8.56124 19.125 8.56124 18.675C8.56124 17.325 8.56124 16.5375 8.56124 16.0875C8.56124 13.5 8.56124 11.5875 8.56124 10.6875C9.47443 10.6875 10.1593 10.6875 10.6159 10.6875C10.6159 13.275 10.6159 14.9625 10.6159 15.8625C11.6433 15.75 12.214 15.75 12.6706 15.6375C12.6706 13.1625 12.6706 11.475 12.6706 10.6875C13.5838 10.6875 14.2687 10.6875 14.7253 10.6875Z" fill="black"/>
<path d="M18.7206 13.05C18.7206 14.0625 18.7206 15.8625 18.7206 16.3125C20.0904 16.2 20.7753 16.2 21.8026 16.0875C21.8026 17.1 21.8026 17.8875 21.8026 18.3375C20.3187 18.5625 19.4055 18.5625 18.7206 18.675C18.7206 19.6875 18.7206 19.8 18.7206 20.25C20.547 20.025 21.6885 19.8 22.7158 19.6875C22.7158 20.7 22.7158 21.375 22.7158 21.9375C20.8894 22.275 19.6338 22.5 18.7206 22.6125C17.8074 22.725 17.1225 22.8375 16.6659 22.95C16.6659 22.3875 16.6659 21.375 16.6659 20.925C16.6659 20.475 16.6659 20.1375 16.6659 19.9125C16.6659 18.675 16.6659 17.8875 16.6659 17.55C16.6659 16.3125 16.6659 15.525 16.6659 15.1875C16.6659 13.95 16.6659 13.1625 16.6659 12.825C16.6659 11.5875 16.6659 11.25 16.6659 10.8C17.6932 10.8 18.3781 10.8 18.7206 10.8C20.7753 10.8 21.6885 10.8 22.7158 10.8C22.7158 11.925 22.7158 12.6 22.7158 13.05C20.7753 12.9375 19.6338 12.9375 18.7206 13.05Z" fill="black"/>
<path d="M71.5719 0C69.6314 0 67.9191 1.575 67.9191 3.375C67.9191 5.2875 69.2889 6.75 71.1153 6.75C71.1153 6.75 71.1153 6.75 71.2295 6.75C72.0285 6.75 72.7134 6.075 72.7134 5.2875C72.7134 4.5 72.0285 3.825 71.2295 3.825C70.4304 3.825 69.7455 4.5 69.7455 5.2875V5.4C69.1748 4.95 68.7182 4.1625 68.7182 3.2625C68.7182 1.9125 70.088 0.675 71.5719 0.675C73.6266 0.675 74.7681 2.025 74.7681 4.3875C74.7681 6.525 73.2842 8.1 71.2295 8.1H0V9H27.1677V21.9375C15.0678 25.2 0.11415 25.9875 0 26.1V26.8875C0.2283 26.8875 19.2913 25.7625 31.8478 21.4875C34.4732 20.5875 37.4411 19.575 40.5232 18.45C52.5089 14.2875 67.2342 9 69.9738 9H71.2295C73.7408 9 75.6813 6.975 75.6813 4.5C75.6813 1.6875 74.0832 0 71.5719 0Z" fill="black"/>
<path d="M95.8858 36.225C95.6575 36.225 76.5945 37.35 64.038 41.625C61.4126 42.525 58.4447 43.5375 55.3627 44.6625C43.4911 48.825 28.6516 54 25.912 54H23.0583C20.547 54 18.6064 56.025 18.6064 58.5C18.6064 61.3125 20.2045 63 22.6017 63C24.5422 63 26.2545 61.425 26.2545 59.625C26.2545 57.7125 24.8847 56.25 23.0583 56.25C23.0583 56.25 23.0583 56.25 22.9441 56.25C22.1451 56.25 21.4602 56.925 21.4602 57.7125C21.4602 58.5 22.1451 59.175 22.9441 59.175C23.7432 59.175 24.4281 58.5 24.4281 57.7125V57.6C24.9988 58.05 25.4554 58.8375 25.4554 59.7375C25.4554 61.0875 24.0856 62.325 22.6017 62.325C20.547 62.325 19.4055 60.975 19.4055 58.6125C19.4055 56.475 20.8894 54.9 22.9441 54.9H54.4495V45.7875C54.7919 45.675 55.1344 45.5625 55.4768 45.45C58.5589 44.325 61.6409 43.3125 64.1522 42.4125C76.5945 38.1375 95.5434 37.0125 95.7717 37.0125L95.8858 36.225Z" fill="black"/>
</svg>
